<svg xmlns="http://www.w3.org/2000/svg" fill="currentColor" viewBox="0 0 24 24">
  <path d="m12.25 6.68-1.21 5.02a.43.43 0 0 1-.5.4H9.8a.4.4 0 0 1-.4-.34C8.82 9.9 8.05 7.35 7.53 5.63c-.2-.63-.07-.62.44-.6h.55c.2 0 .36.14.39.33.17.6.28 1.07 1.24 4.88l.07.21h.05l.07-.27 1.1-4.63c.11-.48.31-.53.8-.53h.35c.32 0 .43.07.5.4.29 1.09 1.1 4.76 1.26 5.17.24-.86-.09.37 1.33-5.11.1-.38.2-.46.58-.46h.59c.25 0 .33.09.27.34-.12.44-.14.46-1.94 6.22-.14.47-.2.51-.68.51H14c-.34 0-.43-.06-.51-.4-.2-.75-1.1-4.48-1.24-5zM5.88 11.9a.41.41 0 0 0 .67.1l.29-.19c.32-.21.34-.3.17-.63-.19-.36-.3-.77-.3-1.22v-.04c0-.15.03-2.61-.04-3.13A2.03 2.03 0 0 0 5.2 4.98h-.01a4.46 4.46 0 0 0-1.56-.15h.02c-.74.03-1.42.23-2.03.55l.03-.01a.4.4 0 0 0-.2.23 1.86 1.86 0 0 0-.03.57c.03.27.13.32.39.24.24-.08.47-.19.7-.26a3.36 3.36 0 0 1 2.1-.07h-.03a1 1 0 0 1 .67.63 3.05 3.05 0 0 1 .11 1.15v-.01c0 .26 0 .26-.26.2a6.01 6.01 0 0 0-1.98-.14h.02c-.72.06-1.36.4-1.79.94a2.22 2.22 0 0 0-.34 1.87v-.02c.1.68.58 1.23 1.22 1.42h.01a2.87 2.87 0 0 0 2.71-.45v.01c.17-.13.33-.29.52-.44.14.23.27.45.41.65zM5.16 9a.2.2 0 0 1 .2.25v.53c-.06.53-.39.96-.84 1.17a2.18 2.18 0 0 1-1.24.24h.01a1 1 0 0 1-.92-1.24c.03-.54.46-.98 1-1.02a4.46 4.46 0 0 1 1.83.09h-.03zm16.35 3.06a2.05 2.05 0 0 0 1.37-2.36v.02a1.75 1.75 0 0 0-1.17-1.38h-.01c-.91-.3-1.66-.58-2.39-.91l.13.05a.64.64 0 0 1-.35-.56l-.01-.12a.8.8 0 0 1 .72-.8 3.1 3.1 0 0 1 1.34-.02h-.02c.35.06.67.2 1 .3.14.03.28.09.37-.08.05-.1.08-.22.08-.33 0-.3-.17-.56-.41-.7a3.93 3.93 0 0 0-3.23-.06l.02-.01a1.93 1.93 0 0 0-.1 3.55h.01c.36.18.76.28 1.14.42s.76.28 1.13.43a.82.82 0 0 1 .06 1.4c-1.3.73-3.05-.1-3.25-.17-.15-.05-.25 0-.3.17a.78.78 0 0 0 .54 1.06 4.84 4.84 0 0 0 3.36.09h-.03zm-7.63 7.63c2.5-.27 4.76-1.06 6.76-2.25l-.08.04c.38-.22.73-.48 1.08-.73.35-.24.15-.86-.53-.57A22.49 22.49 0 0 1 13.2 18h-.05l-1 .02c-1.16 0-2.29-.09-3.4-.26l.13.02a23 23 0 0 1-8.43-2.93l.1.06a1.1 1.1 0 0 0-.29-.14c-.24-.05-.37.22-.12.45a17.2 17.2 0 0 0 11.72 4.58h.01c.67-.04 1.35-.04 2.01-.11zm8.18-4.32c.7.03.91.27.74.94-.18.7-.44 1.37-.65 2.05-.04.14-.2.3-.04.42.17.12.3-.05.42-.16a4.3 4.3 0 0 0 1.05-1.55v-.03c.26-.56.41-1.22.41-1.92v-.05c0-.28-.08-.4-.36-.49a3.9 3.9 0 0 0-.76-.14h-.02a5.2 5.2 0 0 0-2.94.51l.04-.02a2.4 2.4 0 0 0-.41.28c-.05.04-.15.25.11.28a1.02 1.02 0 0 0 .29-.01h-.01a12.68 12.68 0 0 1 2.15-.11h-.02z"/>
</svg>
