<svg xmlns="http://www.w3.org/2000/svg" xml:space="preserve" fill="currentColor" viewBox="0 0 471 471">
  <path d="M427 0H44c-9 0-16 8-16 17l35 392c1 9 9 19 18 22l138 38c9 2 24 2 32 0l139-38c8-3 16-12 17-22l35-392c1-9-6-17-15-17zm-66 142h-1l-108 44a3 3 0 0 0 1 7h85a16 16 0 0 1 15 17l-13 123c-1 6-5 12-10 14l-90 31h-10l-89-31c-6-2-10-7-10-13l-6-56a10 10 0 0 1 10-11h25c5 0 9 4 10 9l4 34 61 22 62-22 8-71H130c-5 0-10-4-10-9l-4-30c0-5 2-9 7-11l111-46a3 3 0 0 0-1-6H116c-4 0-7-3-7-6l-4-32a7 7 0 0 1 7-8h247a7 7 0 0 1 6 8l-4 43z"/>
</svg>
