<svg xmlns="http://www.w3.org/2000/svg" fill="currentColor" viewBox="0 0 32 32">
  <path d="M0 0h32v32H0zm29.4 24.4c-.3-1.5-1.2-2.7-4-3.9-1-.4-2.1-.7-2.4-1.5-.1-.4-.2-.7 0-1 .1-.8 1.1-1 2-.8.5.2 1 .6 1.2 1.2l2.4-1.5-.8-1c-.8-1-2-1.5-3.8-1.4l-1 .1c-.8.2-1.7.7-2.2 1.3-1.5 1.8-1 4.8.8 6 1.8 1.4 4.4 1.7 4.8 3 .3 1.5-1.2 2-2.6 1.8-1.1-.2-1.7-.8-2.4-1.8L19 26.3c.3.7.6 1 1 1.5 2.4 2.4 8.2 2.2 9.2-1.3 0-.1.3-1 .1-2.2zm-12-9.7h-3v7.7c0 1.7 0 3.2-.2 3.7-.4.9-1.6.8-2 .6-.6-.3-.9-.6-1.2-1.1 0-.2-.1-.3-.2-.3l-2.4 1.5c.4.8 1 1.6 1.8 2 1.1.7 2.6 1 4.3.6 1-.3 1.9-1 2.4-2 .6-1.2.5-2.7.5-4.4v-8.2z"/>
</svg>
