<svg xmlns="http://www.w3.org/2000/svg" fill="currentColor" viewBox="0 0 50 50">
  <path d="M5 5a1 1 0 0 0-1 1v38a1 1 0 0 0 1 1h3a1 1 0 1 0 0-2H6V7h2a1 1 0 1 0 0-2H5zm37 0a1 1 0 1 0 0 2h2v36h-2a1 1 0 1 0 0 2h3a1 1 0 0 0 1-1V6a1 1 0 0 0-1-1h-3zM31 17.5c-1 0-2.1.3-3 .9l-1.7 1.4c-.8-1.8-2.4-2.2-4.1-2.2-1.8 0-3.3.7-4.5 2.2V18H14v14h3.7v-9.2c.4-1.4 1.8-2.3 3.3-2.2 1.3.2 2.1.9 2.2 2.5V32h3.6v-7.8l.2-1.8c.4-1.3 1.6-1.9 3-1.7 1.3.1 2.2.8 2.3 2.1V32H36V22c0-1-.3-1.5-.6-2.1-.7-1.5-2.5-2.4-4.3-2.4z"/>
</svg>
