<svg xmlns="http://www.w3.org/2000/svg" fill="none" viewBox="0 0 15 15">
  <path fill="currentColor" d="m7.5.5.37-.34a.5.5 0 0 0-.74 0L7.5.5Zm0 13-.4.3a.5.5 0 0 0 .8 0l-.4-.3ZM4.62 9.84l-.39.3.4-.3Zm.25-6.47-.37-.34.37.34Zm5.26 0 .37-.34-.37.34Zm.25 6.47.39.3-.4-.3ZM8 15V.5H7V15h1Zm-.1-1.8L5.01 9.52l-.79.62 2.88 3.66.78-.62ZM5.23 3.7 7.87.85 7.13.16 4.5 3.03l.74.68ZM7.14.85 9.75 3.7l.74-.68L7.87.16l-.74.68Zm2.84 8.69-2.87 3.66.78.62 2.88-3.66-.79-.62ZM9.76 3.7a4.5 4.5 0 0 1 .22 5.82l.79.62a5.5 5.5 0 0 0-.27-7.12l-.74.68ZM5.02 9.53a4.5 4.5 0 0 1 .22-5.82l-.74-.68a5.5 5.5 0 0 0-.27 7.12l.79-.62Z"/>
</svg>
