<svg xmlns="http://www.w3.org/2000/svg" fill="currentColor" viewBox="0 0 24 24">
  <path d="M16.63 16.5a1.66 1.66 0 0 0 1.5-1.75 1.73 1.73 0 0 0-1.7-1.65h-.07a1.71 1.71 0 0 0-1.15 2.92c-1.05 2.04-2.62 3.54-5 4.8a8.2 8.2 0 0 1-4.95.93 4.31 4.31 0 0 1-3.11-1.8 4.47 4.47 0 0 1-.26-4.73 7.07 7.07 0 0 1 2.1-2.45 9.96 9.96 0 0 1-.42-1.54C-.87 14.41-.42 18.75.93 20.81c1 1.5 3.06 2.45 5.3 2.45.6 0 1.24-.04 1.85-.2 3.9-.74 6.85-3.08 8.54-6.52l.01-.04zm5.35-3.74a12.37 12.37 0 0 0-9.63-4.23h-.51c-.26-.55-.84-.9-1.5-.9h-.04c-.95 0-1.68.81-1.65 1.76.03.9.8 1.64 1.7 1.64h.08a1.7 1.7 0 0 0 1.5-1.04h.55c2.31 0 4.5.67 6.5 1.99a8.21 8.21 0 0 1 3.23 3.9c.53 1.28.5 2.54-.05 3.6a4.45 4.45 0 0 1-4.2 2.5c-1.2 0-2.36-.37-2.96-.64-.36.3-.96.8-1.4 1.1 1.32.6 2.66.94 3.95.94 2.92 0 5.09-1.65 5.91-3.24.9-1.8.83-4.82-1.47-7.41v.03zM6.5 17.04c.03.9.8 1.65 1.7 1.65h.07c.96-.03 1.7-.82 1.65-1.77 0-.9-.78-1.65-1.7-1.65h-.06c-.06 0-.15 0-.22.03a11.2 11.2 0 0 1-1.57-6.77 8.13 8.13 0 0 1 1.8-4.73 5.33 5.33 0 0 1 3.74-1.71c3.23-.06 4.58 3.97 4.69 5.57l1.5.45C17.74 3.2 14.69.62 11.76.62c-2.74 0-5.27 2-6.29 4.92-1.4 3.9-.48 7.64 1.23 10.63-.15.2-.24.54-.21.87z"/>
</svg>
