<svg xmlns="http://www.w3.org/2000/svg" preserveAspectRatio="xMidYMid" viewBox="0 0 256 257">
  <path fill="currentColor" d="M255.15 37.94 134.9 252.98a6.54 6.54 0 0 1-11.39.04L.87 37.96a6.54 6.54 0 0 1 6.83-9.67L128.1 49.8c.76.13 1.55.13 2.32 0l117.87-21.5c5.43-.98 9.57 4.8 6.87 9.63Z"/>
  <path d="m185.43.06-89 17.44a3.27 3.27 0 0 0-2.62 3.01l-5.48 92.46a3.27 3.27 0 0 0 4 3.38l24.77-5.72a3.27 3.27 0 0 1 3.94 3.84l-7.36 36.05a3.27 3.27 0 0 0 4.15 3.78l15.3-4.65a3.27 3.27 0 0 1 4.16 3.79l-11.7 56.62c-.74 3.54 3.98 5.47 5.94 2.43l1.31-2.03 72.52-144.71a3.27 3.27 0 0 0-3.54-4.68L176.32 66a3.27 3.27 0 0 1-3.76-4.12l16.64-57.7a3.27 3.27 0 0 0-3.77-4.12Z"/>
</svg>
