<svg xmlns="http://www.w3.org/2000/svg" fill="currentColor" viewBox="0 0 32 32">
  <path d="M23.75 30c-.12.07-.11.09 0 .03a.31.31 0 0 0 .1-.06c0-.02 0-.02-.1.03zm.24-.13c-.06.05-.06.05.01.02a.25.25 0 0 0 .07-.05c0-.02-.02-.02-.08.03zm.16-.09c-.06.05-.06.05 0 .02a.25.25 0 0 0 .07-.05c0-.03-.01-.02-.07.03zm.15-.1c-.05.05-.05.05.01.02l.07-.04c0-.03-.02-.02-.08.03zm.22-.13c-.11.07-.15.12-.05.06.07-.04.18-.13.16-.13l-.12.07zM14.95 0l-.48.04A16.04 16.04 0 0 0 .14 13.67 12.2 12.2 0 0 0 0 16.01c0 1.19.02 1.44.14 2.32a16.07 16.07 0 0 0 14.33 13.63c.48.06 2.58.06 3.06 0a16.2 16.2 0 0 0 5.77-1.68c.27-.14.32-.18.29-.21-.88-1.16-1.75-2.32-2.61-3.5l-2.56-3.45-3.2-4.74a416.4 416.4 0 0 0-3.23-4.75l-.03 4.68c-.01 4.5-.01 4.69-.07 4.8a.57.57 0 0 1-.27.28c-.1.05-.2.06-.67.06h-.54l-.14-.09a.6.6 0 0 1-.2-.23L10 23v-6.27l.01-6.27.1-.13a.75.75 0 0 1 .23-.18c.13-.07.18-.08.72-.08.64 0 .74.03.91.21 1.3 1.93 2.59 3.87 3.86 5.81l6.31 9.57 2.54 3.84.12-.09a15.93 15.93 0 0 0 7.05-15.72A16.07 16.07 0 0 0 17.6.05C17.29.02 15.2 0 14.95.01zM21.5 9.7c.15.07.27.2.32.36.02.09.03 1.83.02 5.74v5.63l-1-1.52-1-1.52v-4.09c0-2.64.02-4.13.03-4.2.05-.17.16-.3.32-.4.12-.06.17-.06.66-.06.47 0 .54 0 .65.06z"/>
</svg>
