<svg xmlns="http://www.w3.org/2000/svg" fill="currentColor" viewBox="0 -1.5 27 27">
  <path d="M15.9 11.97a2.41 2.41 0 1 1-4.82 0 2.41 2.41 0 0 1 4.82 0z"/>
  <path d="M13.5 17.5a27.97 27.97 0 0 1-8.76-1.21l.2.05a10.89 10.89 0 0 1-3.55-1.9l.02.01a3.41 3.41 0 0 1-1.4-2.47c0-1.6 1.74-3.16 4.67-4.18a27.16 27.16 0 0 1 8.83-1.3h-.02.38c2.97 0 5.82.46 8.5 1.33l-.2-.05c1.31.42 2.44 1.03 3.44 1.81l-.03-.02c.78.55 1.3 1.4 1.4 2.4 0 1.66-1.96 3.34-5.11 4.38a27.1 27.1 0 0 1-8.4 1.14h.02zm0-9.85h-.37c-2.88 0-5.65.45-8.26 1.3l.2-.06c-2.7.94-3.91 2.23-3.91 3.08 0 .9 1.3 2.3 4.15 3.28a25.67 25.67 0 0 0 8.21 1.09h-.03.5c2.67 0 5.26-.4 7.7-1.14l-.18.05c2.96-.98 4.32-2.39 4.32-3.28a2.25 2.25 0 0 0-.97-1.51 9.8 9.8 0 0 0-2.98-1.58l-.07-.02a26.02 26.02 0 0 0-8.34-1.2h.02z"/>
  <path d="M8.02 23.99h-.05c-.45 0-.88-.12-1.25-.33h.02c-1.38-.8-1.86-3.08-1.28-6.13.7-3.13 1.82-5.9 3.34-8.4l-.07.12a27.86 27.86 0 0 1 5.43-6.87l.02-.02c.92-.84 2-1.54 3.18-2.03l.08-.02a3.22 3.22 0 0 1 2.79 0h-.02c1.43.82 1.9 3.35 1.24 6.6a27.77 27.77 0 0 1-3.27 7.96l.07-.13A27.58 27.58 0 0 1 13 21.56l-.02.02c-.95.87-2.08 1.59-3.32 2.08l-.07.02c-.46.18-1 .3-1.55.3zm1.2-14.45.5.29a26.33 26.33 0 0 0-3.1 7.74l-.03.18c-.54 2.8-.02 4.5.72 4.92.19.1.41.16.65.16h.07c.95 0 2.45-.6 4.19-2.12a26.4 26.4 0 0 0 4.97-6.4l.07-.14a26.07 26.07 0 0 0 3.02-7.3l.04-.19c.63-3.05.09-4.93-.68-5.37a2.2 2.2 0 0 0-1.82.09h.01a9.86 9.86 0 0 0-2.9 1.84A26.6 26.6 0 0 0 9.8 9.7l-.07.13z"/>
  <path d="M18.96 24c-1.3 0-2.96-.79-4.69-2.28a27.8 27.8 0 0 1-5.46-6.83l-.08-.14a27.05 27.05 0 0 1-3.21-7.97l-.04-.19a10.75 10.75 0 0 1-.14-3.9l-.01.05c.08-1 .6-1.85 1.37-2.4h.01c1.43-.83 3.87.02 6.34 2.23a27.87 27.87 0 0 1 5.12 6.54l.07.13a26.77 26.77 0 0 1 3.25 7.8l.03.19a10.7 10.7 0 0 1 .13 4.05v-.06a3.42 3.42 0 0 1-1.42 2.46h-.01c-.35.2-.77.32-1.2.32h-.06zm-9.23-9.82A27.07 27.07 0 0 0 15 20.83l.02.02c2.17 1.86 3.89 2.27 4.63 1.83.77-.44 1.34-2.27.76-5.23a26.25 26.25 0 0 0-3.22-7.74l.06.11a26.77 26.77 0 0 0-4.95-6.38v-.01c-2.34-2.08-4.23-2.54-5-2.1-.48.39-.8.96-.83 1.6a9.5 9.5 0 0 0 .16 3.5l-.01-.06a26.41 26.41 0 0 0 3.18 7.92l-.07-.12z"/>
</svg>
