<svg width="24" height="24" viewBox="0 0 496 512" xmlns="http://www.w3.org/2000/svg">
  <path fill="currentColor" d="M248 8a248 248 0 1 0 248 248C496 119.9 384.1 8 248 8zm114.1 168.7c-3.7 39.2-19.9 134.4-28.1 178.3-3.5 18.6-10.3 24.8-17 25.4-14.3 1.3-25.3-9.5-39.2-18.6-21.9-14.4-34.2-23.3-55.4-37.2-24.5-16.2-8.6-25 5.4-39.5 3.6-3.8 67-61.5 68.3-66.8.1-.6.3-3-1.2-4.4s-3.6-.8-5.1-.5q-3.3.8-104.6 69.2-14.9 10.2-26.9 10c-8.9-.3-25.9-5-38.5-9.2-15.6-5-28-7.7-26.8-16.3q.8-6.7 18.4-13.7 108.4-47.2 144.6-62.3c68.9-28.6 83.2-33.6 92.5-33.8 2 0 6.7.5 9.6 2.9a10.4 10.4 0 0 1 3.6 6.7 43.8 43.8 0 0 1 .4 9.8z"/>
</svg>
