<svg xmlns="http://www.w3.org/2000/svg" fill="currentColor" viewBox="0 0 24 24">
  <path d="M0 12v12h24V0H0zm19.34-.96c.61.16 1.08.43 1.5.87.22.24.55.67.58.77 0 .03-1.04.73-1.67 1.12-.02.02-.12-.08-.22-.23-.3-.45-.63-.65-1.13-.68-.72-.05-1.2.33-1.19.96a.88.88 0 0 0 .1.45c.16.34.46.53 1.4.94 1.71.74 2.45 1.22 2.9 1.92.52.77.63 2 .28 2.92-.38 1-1.32 1.68-2.65 1.9-.41.08-1.39.07-1.83-.01a4.41 4.41 0 0 1-2.44-1.28 4.23 4.23 0 0 1-.63-.92 162.3 162.3 0 0 0 1.11-.66l.7-.4.14.22c.2.3.64.73.91.87.77.4 1.82.34 2.34-.12a.88.88 0 0 0 .3-.72c0-.28-.03-.4-.17-.61-.19-.27-.57-.49-1.65-.96A5.94 5.94 0 0 1 15.76 16a3.17 3.17 0 0 1-.66-1.2 4.83 4.83 0 0 1-.04-1.53c.25-1.2 1.16-2.03 2.46-2.28.42-.08 1.4-.05 1.82.05zm-5.63 1v.99H10.6v8.88H8.38v-8.88H5.26v-.96c0-.54 0-.98.02-1 .02-.01 1.92-.02 4.22-.01h4.2z"/>
</svg>
